<?xml version="1.0" encoding="UTF-8"?>
<svg width="752pt" height="752pt" version="1.1" viewBox="0 0 752 752" xmlns="http://www.w3.org/2000/svg">
 <path d="m527.94 309.34c-5.3633-5.7891-12.957-9.1094-20.848-9.1094h-55.32v-37.887c0-41.781-33.992-75.773-75.773-75.773s-75.773 33.992-75.773 75.773v37.887h-55.316c-7.8906 0-15.492 3.3203-20.848 9.1055-5.3555 5.7891-8.0898 13.621-7.4844 21.488l13.336 173.4c2.6484 34.324 31.684 61.215 66.109 61.215h159.95c34.43 0 63.461-26.891 66.105-61.215l13.336-173.4c0.60938-7.8633-2.1172-15.691-7.4766-21.484zm-208.77-46.992c0-31.336 25.492-56.828 56.828-56.828s56.828 25.492 56.828 56.828v37.887l-113.66-0.003907zm184.02 240.42c-1.8828 24.516-22.629 43.727-47.215 43.727h-159.96c-24.59 0-45.332-19.207-47.223-43.727l-13.336-173.4c-0.20312-2.6602 0.68359-5.2031 2.4922-7.1602 1.8086-1.957 4.2852-3.0352 6.9531-3.0352h55.316v47.359c0 5.2266 4.2422 9.4727 9.4727 9.4727 5.2266 0 9.4727-4.2422 9.4727-9.4727v-47.359h113.66v47.359c0 5.2266 4.2422 9.4727 9.4727 9.4727 5.2266 0 9.4727-4.2422 9.4727-9.4727l-0.003906-47.359h55.32c2.668 0 5.1367 1.0781 6.9531 3.0352 1.8125 1.957 2.6953 4.5 2.4922 7.1602z"/>
</svg>
